<?xml version="1.0" encoding="UTF-8" standalone="no"?>
<svg
   width="19.501181"
   height="10.500957"
   fill="#ffffff"
   viewBox="0 0 208.01259 112.0102"
   version="1.1"
   id="svg4"
   xmlns="http://www.w3.org/2000/svg"
   xmlns:svg="http://www.w3.org/2000/svg">
  <defs
     id="defs8" />
  <path
     d="m 61.666293,109.66391 a 8,8 0 0 1 -11.32,0 L 2.3462931,61.663909 a 8,8 0 0 1 0,-11.32 L 50.346293,2.3439074 a 8.0044488,8.0044488 0 0 1 11.32,11.3199996 l -42.35,42.340002 42.35,42.34 a 8,8 0 0 1 0,11.320001 z m 84.679997,-96.000003 42.35,42.340002 -42.35,42.34 a 8.0044488,8.0044488 0 0 0 11.32,11.320001 l 48,-48.000001 a 8,8 0 0 0 0,-11.32 l -48,-48.0000016 a 8.0044488,8.0044488 0 0 0 -11.32,11.3199996 z"
     id="path2" />
</svg>
